<svg width="24" height="24" viewBox="0 0 24 24" fill="none" xmlns="http://www.w3.org/2000/svg">
<path d="M12 23.6667C10.4055 23.6667 8.89859 23.3604 7.47915 22.7479C6.0597 22.1354 4.82012 21.2993 3.7604 20.2396C2.70067 19.1799 1.86456 17.9403 1.25206 16.5208C0.639563 15.1014 0.333313 13.5945 0.333313 12C0.333313 10.3861 0.639563 8.87432 1.25206 7.46459C1.86456 6.05487 2.70067 4.82015 3.7604 3.76043C4.82012 2.7007 6.0597 1.86459 7.47915 1.25209C8.89859 0.639593 10.4055 0.333344 12 0.333344C13.6139 0.333344 15.1257 0.639593 16.5354 1.25209C17.9451 1.86459 19.1798 2.7007 20.2396 3.76043C21.2993 4.82015 22.1354 6.05487 22.7479 7.46459C23.3604 8.87432 23.6666 10.3861 23.6666 12C23.6666 13.5945 23.3604 15.1014 22.7479 16.5208C22.1354 17.9403 21.2993 19.1799 20.2396 20.2396C19.1798 21.2993 17.9451 22.1354 16.5354 22.7479C15.1257 23.3604 13.6139 23.6667 12 23.6667ZM12 21.275C12.5055 20.575 12.943 19.8458 13.3125 19.0875C13.6819 18.3292 13.9833 17.5222 14.2166 16.6667H9.78331C10.0166 17.5222 10.318 18.3292 10.6875 19.0875C11.0569 19.8458 11.4944 20.575 12 21.275ZM8.96665 20.8083C8.61665 20.1667 8.3104 19.5007 8.0479 18.8104C7.7854 18.1201 7.56665 17.4056 7.39165 16.6667H3.94998C4.51387 17.6389 5.21873 18.4847 6.06456 19.2042C6.9104 19.9236 7.87776 20.4583 8.96665 20.8083ZM15.0333 20.8083C16.1222 20.4583 17.0896 19.9236 17.9354 19.2042C18.7812 18.4847 19.4861 17.6389 20.05 16.6667H16.6083C16.4333 17.4056 16.2146 18.1201 15.9521 18.8104C15.6896 19.5007 15.3833 20.1667 15.0333 20.8083ZM2.95831 14.3333H6.92498C6.86665 13.9445 6.8229 13.5604 6.79373 13.1813C6.76456 12.8021 6.74998 12.4083 6.74998 12C6.74998 11.5917 6.76456 11.1979 6.79373 10.8188C6.8229 10.4396 6.86665 10.0556 6.92498 9.66668H2.95831C2.86109 10.0556 2.78817 10.4396 2.73956 10.8188C2.69095 11.1979 2.66665 11.5917 2.66665 12C2.66665 12.4083 2.69095 12.8021 2.73956 13.1813C2.78817 13.5604 2.86109 13.9445 2.95831 14.3333ZM9.25831 14.3333H14.7416C14.8 13.9445 14.8437 13.5604 14.8729 13.1813C14.9021 12.8021 14.9166 12.4083 14.9166 12C14.9166 11.5917 14.9021 11.1979 14.8729 10.8188C14.8437 10.4396 14.8 10.0556 14.7416 9.66668H9.25831C9.19998 10.0556 9.15623 10.4396 9.12706 10.8188C9.0979 11.1979 9.08331 11.5917 9.08331 12C9.08331 12.4083 9.0979 12.8021 9.12706 13.1813C9.15623 13.5604 9.19998 13.9445 9.25831 14.3333ZM17.075 14.3333H21.0416C21.1389 13.9445 21.2118 13.5604 21.2604 13.1813C21.309 12.8021 21.3333 12.4083 21.3333 12C21.3333 11.5917 21.309 11.1979 21.2604 10.8188C21.2118 10.4396 21.1389 10.0556 21.0416 9.66668H17.075C17.1333 10.0556 17.1771 10.4396 17.2062 10.8188C17.2354 11.1979 17.25 11.5917 17.25 12C17.25 12.4083 17.2354 12.8021 17.2062 13.1813C17.1771 13.5604 17.1333 13.9445 17.075 14.3333ZM16.6083 7.33334H20.05C19.4861 6.36112 18.7812 5.51529 17.9354 4.79584C17.0896 4.0764 16.1222 3.54168 15.0333 3.19168C15.3833 3.83334 15.6896 4.49932 15.9521 5.18959C16.2146 5.87987 16.4333 6.59445 16.6083 7.33334ZM9.78331 7.33334H14.2166C13.9833 6.47779 13.6819 5.67084 13.3125 4.91251C12.943 4.15418 12.5055 3.42501 12 2.72501C11.4944 3.42501 11.0569 4.15418 10.6875 4.91251C10.318 5.67084 10.0166 6.47779 9.78331 7.33334ZM3.94998 7.33334H7.39165C7.56665 6.59445 7.7854 5.87987 8.0479 5.18959C8.3104 4.49932 8.61665 3.83334 8.96665 3.19168C7.87776 3.54168 6.9104 4.0764 6.06456 4.79584C5.21873 5.51529 4.51387 6.36112 3.94998 7.33334Z" fill="#FEFEFE"/>
</svg>
