<svg width="24" height="24" viewBox="0 0 24 24" fill="none" xmlns="http://www.w3.org/2000/svg">
<path d="M12 23.6667C10.4056 23.6667 8.89865 23.3604 7.47921 22.7479C6.05976 22.1354 4.82018 21.2993 3.76046 20.2396C2.70074 19.1799 1.86462 17.9403 1.25212 16.5208C0.639624 15.1014 0.333374 13.5944 0.333374 12C0.333374 10.3861 0.639624 8.8743 1.25212 7.46458C1.86462 6.05486 2.70074 4.82014 3.76046 3.76042C4.82018 2.70069 6.05976 1.86458 7.47921 1.25208C8.89865 0.639582 10.4056 0.333332 12 0.333332C13.6139 0.333332 15.1257 0.639582 16.5355 1.25208C17.9452 1.86458 19.1799 2.70069 20.2396 3.76042C21.2993 4.82014 22.1355 6.05486 22.748 7.46458C23.3605 8.8743 23.6667 10.3861 23.6667 12C23.6667 13.5944 23.3605 15.1014 22.748 16.5208C22.1355 17.9403 21.2993 19.1799 20.2396 20.2396C19.1799 21.2993 17.9452 22.1354 16.5355 22.7479C15.1257 23.3604 13.6139 23.6667 12 23.6667ZM12 21.275C12.5056 20.575 12.9431 19.8458 13.3125 19.0875C13.682 18.3292 13.9834 17.5222 14.2167 16.6667H9.78337C10.0167 17.5222 10.3181 18.3292 10.6875 19.0875C11.057 19.8458 11.4945 20.575 12 21.275ZM8.96671 20.8083C8.61671 20.1667 8.31046 19.5007 8.04796 18.8104C7.78546 18.1201 7.56671 17.4056 7.39171 16.6667H3.95004C4.51393 17.6389 5.21879 18.4847 6.06462 19.2042C6.91046 19.9236 7.87782 20.4583 8.96671 20.8083ZM15.0334 20.8083C16.1223 20.4583 17.0896 19.9236 17.9355 19.2042C18.7813 18.4847 19.4862 17.6389 20.05 16.6667H16.6084C16.4334 17.4056 16.2146 18.1201 15.9521 18.8104C15.6896 19.5007 15.3834 20.1667 15.0334 20.8083ZM2.95837 14.3333H6.92504C6.86671 13.9444 6.82296 13.5604 6.79379 13.1812C6.76462 12.8021 6.75004 12.4083 6.75004 12C6.75004 11.5917 6.76462 11.1979 6.79379 10.8187C6.82296 10.4396 6.86671 10.0556 6.92504 9.66667H2.95837C2.86115 10.0556 2.78824 10.4396 2.73962 10.8187C2.69101 11.1979 2.66671 11.5917 2.66671 12C2.66671 12.4083 2.69101 12.8021 2.73962 13.1812C2.78824 13.5604 2.86115 13.9444 2.95837 14.3333ZM9.25837 14.3333H14.7417C14.8 13.9444 14.8438 13.5604 14.873 13.1812C14.9021 12.8021 14.9167 12.4083 14.9167 12C14.9167 11.5917 14.9021 11.1979 14.873 10.8187C14.8438 10.4396 14.8 10.0556 14.7417 9.66667H9.25837C9.20004 10.0556 9.15629 10.4396 9.12712 10.8187C9.09796 11.1979 9.08337 11.5917 9.08337 12C9.08337 12.4083 9.09796 12.8021 9.12712 13.1812C9.15629 13.5604 9.20004 13.9444 9.25837 14.3333ZM17.075 14.3333H21.0417C21.1389 13.9444 21.2118 13.5604 21.2605 13.1812C21.3091 12.8021 21.3334 12.4083 21.3334 12C21.3334 11.5917 21.3091 11.1979 21.2605 10.8187C21.2118 10.4396 21.1389 10.0556 21.0417 9.66667H17.075C17.1334 10.0556 17.1771 10.4396 17.2063 10.8187C17.2355 11.1979 17.25 11.5917 17.25 12C17.25 12.4083 17.2355 12.8021 17.2063 13.1812C17.1771 13.5604 17.1334 13.9444 17.075 14.3333ZM16.6084 7.33333H20.05C19.4862 6.36111 18.7813 5.51528 17.9355 4.79583C17.0896 4.07639 16.1223 3.54167 15.0334 3.19167C15.3834 3.83333 15.6896 4.4993 15.9521 5.18958C16.2146 5.87986 16.4334 6.59444 16.6084 7.33333ZM9.78337 7.33333H14.2167C13.9834 6.47778 13.682 5.67083 13.3125 4.9125C12.9431 4.15417 12.5056 3.425 12 2.725C11.4945 3.425 11.057 4.15417 10.6875 4.9125C10.3181 5.67083 10.0167 6.47778 9.78337 7.33333ZM3.95004 7.33333H7.39171C7.56671 6.59444 7.78546 5.87986 8.04796 5.18958C8.31046 4.4993 8.61671 3.83333 8.96671 3.19167C7.87782 3.54167 6.91046 4.07639 6.06462 4.79583C5.21879 5.51528 4.51393 6.36111 3.95004 7.33333Z" fill="#1D1B20"/>
</svg>
